<mxfile host="65bd71144e">
    <diagram name="Page-1" id="FbG6QioEzbwfXHQi0UbO">
        <mxGraphModel dx="2294" dy="876" grid="0" gridSize="10" guides="1" tooltips="1" connect="1" arrows="1" fold="1" page="0" pageScale="1" pageWidth="1200" pageHeight="1920" math="0" shadow="0">
            <root>
                <mxCell id="0"/>
                <mxCell id="1" parent="0"/>
                <mxCell id="ibM_hUD_oe-rnUsQwL-C-1" value="&lt;i&gt;GeneralEmployee&lt;/i&gt;" style="swimlane;fontStyle=1;align=center;verticalAlign=top;childLayout=stackLayout;horizontal=1;startSize=26;horizontalStack=0;resizeParent=1;resizeParentMax=0;resizeLast=0;collapsible=1;marginBottom=0;whiteSpace=wrap;html=1;fontSize=16;" parent="1" vertex="1">
                    <mxGeometry x="-235" y="-169" width="439" height="544" as="geometry"/>
                </mxCell>
                <mxCell id="ibM_hUD_oe-rnUsQwL-C-2" value="+ employee_id : int" style="text;strokeColor=none;fillColor=none;align=left;verticalAlign=top;spacingLeft=4;spacingRight=4;overflow=hidden;rotatable=0;points=[[0,0.5],[1,0.5]];portConstraint=eastwest;whiteSpace=wrap;html=1;fontSize=16;" parent="ibM_hUD_oe-rnUsQwL-C-1" vertex="1">
                    <mxGeometry y="26" width="439" height="26" as="geometry"/>
                </mxCell>
                <mxCell id="ibM_hUD_oe-rnUsQwL-C-3" value="+ first_name: String" style="text;strokeColor=none;fillColor=none;align=left;verticalAlign=top;spacingLeft=4;spacingRight=4;overflow=hidden;rotatable=0;points=[[0,0.5],[1,0.5]];portConstraint=eastwest;whiteSpace=wrap;html=1;fontSize=16;" parent="ibM_hUD_oe-rnUsQwL-C-1" vertex="1">
                    <mxGeometry y="52" width="439" height="26" as="geometry"/>
                </mxCell>
                <mxCell id="ibM_hUD_oe-rnUsQwL-C-4" value="+ last_name: String" style="text;strokeColor=none;fillColor=none;align=left;verticalAlign=top;spacingLeft=4;spacingRight=4;overflow=hidden;rotatable=0;points=[[0,0.5],[1,0.5]];portConstraint=eastwest;whiteSpace=wrap;html=1;fontSize=16;" parent="ibM_hUD_oe-rnUsQwL-C-1" vertex="1">
                    <mxGeometry y="78" width="439" height="26" as="geometry"/>
                </mxCell>
                <mxCell id="ibM_hUD_oe-rnUsQwL-C-5" value="+ email: String" style="text;strokeColor=none;fillColor=none;align=left;verticalAlign=top;spacingLeft=4;spacingRight=4;overflow=hidden;rotatable=0;points=[[0,0.5],[1,0.5]];portConstraint=eastwest;whiteSpace=wrap;html=1;fontSize=16;" parent="ibM_hUD_oe-rnUsQwL-C-1" vertex="1">
                    <mxGeometry y="104" width="439" height="26" as="geometry"/>
                </mxCell>
                <mxCell id="ibM_hUD_oe-rnUsQwL-C-6" value="+ hire_date: Date" style="text;strokeColor=none;fillColor=none;align=left;verticalAlign=top;spacingLeft=4;spacingRight=4;overflow=hidden;rotatable=0;points=[[0,0.5],[1,0.5]];portConstraint=eastwest;whiteSpace=wrap;html=1;fontSize=16;" parent="ibM_hUD_oe-rnUsQwL-C-1" vertex="1">
                    <mxGeometry y="130" width="439" height="26" as="geometry"/>
                </mxCell>
                <mxCell id="ibM_hUD_oe-rnUsQwL-C-7" value="+ demographics: Demograhpic" style="text;strokeColor=none;fillColor=none;align=left;verticalAlign=top;spacingLeft=4;spacingRight=4;overflow=hidden;rotatable=0;points=[[0,0.5],[1,0.5]];portConstraint=eastwest;whiteSpace=wrap;html=1;fontSize=16;" parent="ibM_hUD_oe-rnUsQwL-C-1" vertex="1">
                    <mxGeometry y="156" width="439" height="26" as="geometry"/>
                </mxCell>
                <mxCell id="ibM_hUD_oe-rnUsQwL-C-8" value="+ employeeJobTitles: ArrayList&amp;lt;EmployeeJobTitle&amp;gt;" style="text;strokeColor=none;fillColor=none;align=left;verticalAlign=top;spacingLeft=4;spacingRight=4;overflow=hidden;rotatable=0;points=[[0,0.5],[1,0.5]];portConstraint=eastwest;whiteSpace=wrap;html=1;fontSize=16;" parent="ibM_hUD_oe-rnUsQwL-C-1" vertex="1">
                    <mxGeometry y="182" width="439" height="26" as="geometry"/>
                </mxCell>
                <mxCell id="ibM_hUD_oe-rnUsQwL-C-9" value="+ address: Address" style="text;strokeColor=none;fillColor=none;align=left;verticalAlign=top;spacingLeft=4;spacingRight=4;overflow=hidden;rotatable=0;points=[[0,0.5],[1,0.5]];portConstraint=eastwest;whiteSpace=wrap;html=1;fontSize=16;" parent="ibM_hUD_oe-rnUsQwL-C-1" vertex="1">
                    <mxGeometry y="208" width="439" height="26" as="geometry"/>
                </mxCell>
                <mxCell id="ibM_hUD_oe-rnUsQwL-C-10" value="+ payroll: ArrayList&amp;lt;Payroll&amp;gt; payrolls" style="text;strokeColor=none;fillColor=none;align=left;verticalAlign=top;spacingLeft=4;spacingRight=4;overflow=hidden;rotatable=0;points=[[0,0.5],[1,0.5]];portConstraint=eastwest;whiteSpace=wrap;html=1;fontSize=16;" parent="ibM_hUD_oe-rnUsQwL-C-1" vertex="1">
                    <mxGeometry y="234" width="439" height="26" as="geometry"/>
                </mxCell>
                <mxCell id="ibM_hUD_oe-rnUsQwL-C-11" value="" style="line;strokeWidth=1;fillColor=none;align=left;verticalAlign=middle;spacingTop=-1;spacingLeft=3;spacingRight=3;rotatable=0;labelPosition=right;points=[];portConstraint=eastwest;strokeColor=inherit;fontSize=16;" parent="ibM_hUD_oe-rnUsQwL-C-1" vertex="1">
                    <mxGeometry y="260" width="439" height="8" as="geometry"/>
                </mxCell>
                <mxCell id="ibM_hUD_oe-rnUsQwL-C-12" value="+ getEmployeeId(): int" style="text;strokeColor=none;fillColor=none;align=left;verticalAlign=top;spacingLeft=4;spacingRight=4;overflow=hidden;rotatable=0;points=[[0,0.5],[1,0.5]];portConstraint=eastwest;whiteSpace=wrap;html=1;fontSize=16;" parent="ibM_hUD_oe-rnUsQwL-C-1" vertex="1">
                    <mxGeometry y="268" width="439" height="26" as="geometry"/>
                </mxCell>
                <mxCell id="ibM_hUD_oe-rnUsQwL-C-13" value="+ getFirstName(): String" style="text;strokeColor=none;fillColor=none;align=left;verticalAlign=top;spacingLeft=4;spacingRight=4;overflow=hidden;rotatable=0;points=[[0,0.5],[1,0.5]];portConstraint=eastwest;whiteSpace=wrap;html=1;fontSize=16;" parent="ibM_hUD_oe-rnUsQwL-C-1" vertex="1">
                    <mxGeometry y="294" width="439" height="26" as="geometry"/>
                </mxCell>
                <mxCell id="ibM_hUD_oe-rnUsQwL-C-14" value="+ getLastName(): String" style="text;strokeColor=none;fillColor=none;align=left;verticalAlign=top;spacingLeft=4;spacingRight=4;overflow=hidden;rotatable=0;points=[[0,0.5],[1,0.5]];portConstraint=eastwest;whiteSpace=wrap;html=1;fontSize=16;" parent="ibM_hUD_oe-rnUsQwL-C-1" vertex="1">
                    <mxGeometry y="320" width="439" height="26" as="geometry"/>
                </mxCell>
                <mxCell id="ibM_hUD_oe-rnUsQwL-C-15" value="+ getEmail(): String" style="text;strokeColor=none;fillColor=none;align=left;verticalAlign=top;spacingLeft=4;spacingRight=4;overflow=hidden;rotatable=0;points=[[0,0.5],[1,0.5]];portConstraint=eastwest;whiteSpace=wrap;html=1;fontSize=16;" parent="ibM_hUD_oe-rnUsQwL-C-1" vertex="1">
                    <mxGeometry y="346" width="439" height="26" as="geometry"/>
                </mxCell>
                <mxCell id="ibM_hUD_oe-rnUsQwL-C-16" value="+ setFirstName(String): void" style="text;strokeColor=none;fillColor=none;align=left;verticalAlign=top;spacingLeft=4;spacingRight=4;overflow=hidden;rotatable=0;points=[[0,0.5],[1,0.5]];portConstraint=eastwest;whiteSpace=wrap;html=1;fontSize=16;" parent="ibM_hUD_oe-rnUsQwL-C-1" vertex="1">
                    <mxGeometry y="372" width="439" height="26" as="geometry"/>
                </mxCell>
                <mxCell id="ibM_hUD_oe-rnUsQwL-C-17" value="+ setLastName(String): void" style="text;strokeColor=none;fillColor=none;align=left;verticalAlign=top;spacingLeft=4;spacingRight=4;overflow=hidden;rotatable=0;points=[[0,0.5],[1,0.5]];portConstraint=eastwest;whiteSpace=wrap;html=1;fontSize=16;" parent="ibM_hUD_oe-rnUsQwL-C-1" vertex="1">
                    <mxGeometry y="398" width="439" height="26" as="geometry"/>
                </mxCell>
                <mxCell id="ibM_hUD_oe-rnUsQwL-C-18" value="+ setEmail(String): void" style="text;strokeColor=none;fillColor=none;align=left;verticalAlign=top;spacingLeft=4;spacingRight=4;overflow=hidden;rotatable=0;points=[[0,0.5],[1,0.5]];portConstraint=eastwest;whiteSpace=wrap;html=1;fontSize=16;" parent="ibM_hUD_oe-rnUsQwL-C-1" vertex="1">
                    <mxGeometry y="424" width="439" height="26" as="geometry"/>
                </mxCell>
                <mxCell id="ibM_hUD_oe-rnUsQwL-C-19" value="+ searchEmployee(int): Employee" style="text;strokeColor=none;fillColor=none;align=left;verticalAlign=top;spacingLeft=4;spacingRight=4;overflow=hidden;rotatable=0;points=[[0,0.5],[1,0.5]];portConstraint=eastwest;whiteSpace=wrap;html=1;fontSize=16;" parent="ibM_hUD_oe-rnUsQwL-C-1" vertex="1">
                    <mxGeometry y="450" width="439" height="26" as="geometry"/>
                </mxCell>
                <mxCell id="ibM_hUD_oe-rnUsQwL-C-20" value="+ toString(): String&lt;br&gt;&lt;i style=&quot;border-color: var(--border-color);&quot;&gt;+ updateEmployeeData(updates: Map&amp;lt;String, Object&amp;gt;&lt;/i&gt;" style="text;strokeColor=none;fillColor=none;align=left;verticalAlign=top;spacingLeft=4;spacingRight=4;overflow=hidden;rotatable=0;points=[[0,0.5],[1,0.5]];portConstraint=eastwest;whiteSpace=wrap;html=1;fontSize=16;" parent="ibM_hUD_oe-rnUsQwL-C-1" vertex="1">
                    <mxGeometry y="476" width="439" height="68" as="geometry"/>
                </mxCell>
                <mxCell id="ibM_hUD_oe-rnUsQwL-C-21" value="EmployeeJobTitle" style="swimlane;fontStyle=1;align=center;verticalAlign=top;childLayout=stackLayout;horizontal=1;startSize=26;horizontalStack=0;resizeParent=1;resizeParentMax=0;resizeLast=0;collapsible=1;marginBottom=0;whiteSpace=wrap;html=1;fontSize=16;" parent="1" vertex="1">
                    <mxGeometry x="-691" y="-169" width="210" height="164" as="geometry"/>
                </mxCell>
                <mxCell id="ibM_hUD_oe-rnUsQwL-C-22" value="+ employee_id: int" style="text;strokeColor=none;fillColor=none;align=left;verticalAlign=top;spacingLeft=4;spacingRight=4;overflow=hidden;rotatable=0;points=[[0,0.5],[1,0.5]];portConstraint=eastwest;whiteSpace=wrap;html=1;fontSize=16;" parent="ibM_hUD_oe-rnUsQwL-C-21" vertex="1">
                    <mxGeometry y="26" width="210" height="26" as="geometry"/>
                </mxCell>
                <mxCell id="ibM_hUD_oe-rnUsQwL-C-23" value="+ job_title_id: int" style="text;strokeColor=none;fillColor=none;align=left;verticalAlign=top;spacingLeft=4;spacingRight=4;overflow=hidden;rotatable=0;points=[[0,0.5],[1,0.5]];portConstraint=eastwest;whiteSpace=wrap;html=1;fontSize=16;" parent="ibM_hUD_oe-rnUsQwL-C-21" vertex="1">
                    <mxGeometry y="52" width="210" height="26" as="geometry"/>
                </mxCell>
                <mxCell id="ibM_hUD_oe-rnUsQwL-C-24" value="+ Employee: Employee" style="text;strokeColor=none;fillColor=none;align=left;verticalAlign=top;spacingLeft=4;spacingRight=4;overflow=hidden;rotatable=0;points=[[0,0.5],[1,0.5]];portConstraint=eastwest;whiteSpace=wrap;html=1;fontSize=16;" parent="ibM_hUD_oe-rnUsQwL-C-21" vertex="1">
                    <mxGeometry y="78" width="210" height="26" as="geometry"/>
                </mxCell>
                <mxCell id="ibM_hUD_oe-rnUsQwL-C-25" value="+ jobTitle: String" style="text;strokeColor=none;fillColor=none;align=left;verticalAlign=top;spacingLeft=4;spacingRight=4;overflow=hidden;rotatable=0;points=[[0,0.5],[1,0.5]];portConstraint=eastwest;whiteSpace=wrap;html=1;fontSize=16;" parent="ibM_hUD_oe-rnUsQwL-C-21" vertex="1">
                    <mxGeometry y="104" width="210" height="26" as="geometry"/>
                </mxCell>
                <mxCell id="ibM_hUD_oe-rnUsQwL-C-26" value="" style="line;strokeWidth=1;fillColor=none;align=left;verticalAlign=middle;spacingTop=-1;spacingLeft=3;spacingRight=3;rotatable=0;labelPosition=right;points=[];portConstraint=eastwest;strokeColor=inherit;fontSize=16;" parent="ibM_hUD_oe-rnUsQwL-C-21" vertex="1">
                    <mxGeometry y="130" width="210" height="8" as="geometry"/>
                </mxCell>
                <mxCell id="ibM_hUD_oe-rnUsQwL-C-27" value="+ getJobTitle(): String" style="text;strokeColor=none;fillColor=none;align=left;verticalAlign=top;spacingLeft=4;spacingRight=4;overflow=hidden;rotatable=0;points=[[0,0.5],[1,0.5]];portConstraint=eastwest;whiteSpace=wrap;html=1;fontSize=16;" parent="ibM_hUD_oe-rnUsQwL-C-21" vertex="1">
                    <mxGeometry y="138" width="210" height="26" as="geometry"/>
                </mxCell>
                <mxCell id="ibM_hUD_oe-rnUsQwL-C-28" value="" style="endArrow=classic;startArrow=classic;html=1;rounded=0;fontSize=12;startSize=8;endSize=8;curved=1;entryX=0.009;entryY=0.024;entryDx=0;entryDy=0;entryPerimeter=0;exitX=1.018;exitY=0.088;exitDx=0;exitDy=0;exitPerimeter=0;" parent="1" source="ibM_hUD_oe-rnUsQwL-C-21" target="ibM_hUD_oe-rnUsQwL-C-1" edge="1">
                    <mxGeometry width="50" height="50" relative="1" as="geometry">
                        <mxPoint x="-468" y="-157" as="sourcePoint"/>
                        <mxPoint x="-361" y="-354" as="targetPoint"/>
                    </mxGeometry>
                </mxCell>
                <mxCell id="ibM_hUD_oe-rnUsQwL-C-29" value="n" style="edgeLabel;html=1;align=center;verticalAlign=middle;resizable=0;points=[];fontSize=16;" parent="ibM_hUD_oe-rnUsQwL-C-28" connectable="0" vertex="1">
                    <mxGeometry x="-0.7198" y="-1" relative="1" as="geometry">
                        <mxPoint x="-1" as="offset"/>
                    </mxGeometry>
                </mxCell>
                <mxCell id="ibM_hUD_oe-rnUsQwL-C-30" value="n" style="edgeLabel;html=1;align=center;verticalAlign=middle;resizable=0;points=[];fontSize=16;" parent="ibM_hUD_oe-rnUsQwL-C-28" connectable="0" vertex="1">
                    <mxGeometry x="0.7011" y="1" relative="1" as="geometry">
                        <mxPoint as="offset"/>
                    </mxGeometry>
                </mxCell>
                <mxCell id="ibM_hUD_oe-rnUsQwL-C-31" value="JobTitles" style="swimlane;fontStyle=1;align=center;verticalAlign=top;childLayout=stackLayout;horizontal=1;startSize=26;horizontalStack=0;resizeParent=1;resizeParentMax=0;resizeLast=0;collapsible=1;marginBottom=0;whiteSpace=wrap;html=1;fontSize=16;" parent="1" vertex="1">
                    <mxGeometry x="-1345" y="-169" width="370" height="138" as="geometry"/>
                </mxCell>
                <mxCell id="ibM_hUD_oe-rnUsQwL-C-32" value="+ job_title_id: int" style="text;strokeColor=none;fillColor=none;align=left;verticalAlign=top;spacingLeft=4;spacingRight=4;overflow=hidden;rotatable=0;points=[[0,0.5],[1,0.5]];portConstraint=eastwest;whiteSpace=wrap;html=1;fontSize=16;" parent="ibM_hUD_oe-rnUsQwL-C-31" vertex="1">
                    <mxGeometry y="26" width="370" height="26" as="geometry"/>
                </mxCell>
                <mxCell id="ibM_hUD_oe-rnUsQwL-C-33" value="+ job_title: String" style="text;strokeColor=none;fillColor=none;align=left;verticalAlign=top;spacingLeft=4;spacingRight=4;overflow=hidden;rotatable=0;points=[[0,0.5],[1,0.5]];portConstraint=eastwest;whiteSpace=wrap;html=1;fontSize=16;" parent="ibM_hUD_oe-rnUsQwL-C-31" vertex="1">
                    <mxGeometry y="52" width="370" height="26" as="geometry"/>
                </mxCell>
                <mxCell id="ibM_hUD_oe-rnUsQwL-C-34" value="+ employeeJobTitles: List&amp;lt;EmployeeJobTitle&amp;gt;" style="text;strokeColor=none;fillColor=none;align=left;verticalAlign=top;spacingLeft=4;spacingRight=4;overflow=hidden;rotatable=0;points=[[0,0.5],[1,0.5]];portConstraint=eastwest;whiteSpace=wrap;html=1;fontSize=16;" parent="ibM_hUD_oe-rnUsQwL-C-31" vertex="1">
                    <mxGeometry y="78" width="370" height="26" as="geometry"/>
                </mxCell>
                <mxCell id="ibM_hUD_oe-rnUsQwL-C-35" value="" style="line;strokeWidth=1;fillColor=none;align=left;verticalAlign=middle;spacingTop=-1;spacingLeft=3;spacingRight=3;rotatable=0;labelPosition=right;points=[];portConstraint=eastwest;strokeColor=inherit;fontSize=16;" parent="ibM_hUD_oe-rnUsQwL-C-31" vertex="1">
                    <mxGeometry y="104" width="370" height="8" as="geometry"/>
                </mxCell>
                <mxCell id="ibM_hUD_oe-rnUsQwL-C-36" value="+ getJobTitleId(): int" style="text;strokeColor=none;fillColor=none;align=left;verticalAlign=top;spacingLeft=4;spacingRight=4;overflow=hidden;rotatable=0;points=[[0,0.5],[1,0.5]];portConstraint=eastwest;whiteSpace=wrap;html=1;fontSize=16;" parent="ibM_hUD_oe-rnUsQwL-C-31" vertex="1">
                    <mxGeometry y="112" width="370" height="26" as="geometry"/>
                </mxCell>
                <mxCell id="ibM_hUD_oe-rnUsQwL-C-37" value="" style="endArrow=classic;startArrow=classic;html=1;rounded=0;fontSize=12;startSize=8;endSize=8;curved=1;entryX=-0.022;entryY=0.074;entryDx=0;entryDy=0;entryPerimeter=0;exitX=1.008;exitY=0.096;exitDx=0;exitDy=0;exitPerimeter=0;" parent="1" source="ibM_hUD_oe-rnUsQwL-C-31" target="ibM_hUD_oe-rnUsQwL-C-21" edge="1">
                    <mxGeometry width="50" height="50" relative="1" as="geometry">
                        <mxPoint x="-964" y="-128" as="sourcePoint"/>
                        <mxPoint x="-718" y="-130" as="targetPoint"/>
                    </mxGeometry>
                </mxCell>
                <mxCell id="ibM_hUD_oe-rnUsQwL-C-38" value="n" style="edgeLabel;html=1;align=center;verticalAlign=middle;resizable=0;points=[];fontSize=16;" parent="ibM_hUD_oe-rnUsQwL-C-37" connectable="0" vertex="1">
                    <mxGeometry x="-0.7198" y="-1" relative="1" as="geometry">
                        <mxPoint x="-1" as="offset"/>
                    </mxGeometry>
                </mxCell>
                <mxCell id="ibM_hUD_oe-rnUsQwL-C-39" value="n" style="edgeLabel;html=1;align=center;verticalAlign=middle;resizable=0;points=[];fontSize=16;" parent="ibM_hUD_oe-rnUsQwL-C-37" connectable="0" vertex="1">
                    <mxGeometry x="0.7011" y="1" relative="1" as="geometry">
                        <mxPoint as="offset"/>
                    </mxGeometry>
                </mxCell>
                <mxCell id="ibM_hUD_oe-rnUsQwL-C-40" value="Fulltime_Employee" style="swimlane;fontStyle=1;align=center;verticalAlign=top;childLayout=stackLayout;horizontal=1;startSize=26;horizontalStack=0;resizeParent=1;resizeParentMax=0;resizeLast=0;collapsible=1;marginBottom=0;whiteSpace=wrap;html=1;fontSize=16;" parent="1" vertex="1">
                    <mxGeometry x="-412" y="564" width="423" height="264" as="geometry"/>
                </mxCell>
                <mxCell id="ibM_hUD_oe-rnUsQwL-C-41" value="+ salary: double" style="text;strokeColor=none;fillColor=none;align=left;verticalAlign=top;spacingLeft=4;spacingRight=4;overflow=hidden;rotatable=0;points=[[0,0.5],[1,0.5]];portConstraint=eastwest;whiteSpace=wrap;html=1;fontSize=16;" parent="ibM_hUD_oe-rnUsQwL-C-40" vertex="1">
                    <mxGeometry y="26" width="423" height="26" as="geometry"/>
                </mxCell>
                <mxCell id="ibM_hUD_oe-rnUsQwL-C-42" value="+ 401K: double" style="text;strokeColor=none;fillColor=none;align=left;verticalAlign=top;spacingLeft=4;spacingRight=4;overflow=hidden;rotatable=0;points=[[0,0.5],[1,0.5]];portConstraint=eastwest;whiteSpace=wrap;html=1;fontSize=16;" parent="ibM_hUD_oe-rnUsQwL-C-40" vertex="1">
                    <mxGeometry y="52" width="423" height="26" as="geometry"/>
                </mxCell>
                <mxCell id="ibM_hUD_oe-rnUsQwL-C-43" value="+ healthCare: double" style="text;strokeColor=none;fillColor=none;align=left;verticalAlign=top;spacingLeft=4;spacingRight=4;overflow=hidden;rotatable=0;points=[[0,0.5],[1,0.5]];portConstraint=eastwest;whiteSpace=wrap;html=1;fontSize=16;" parent="ibM_hUD_oe-rnUsQwL-C-40" vertex="1">
                    <mxGeometry y="78" width="423" height="26" as="geometry"/>
                </mxCell>
                <mxCell id="ibM_hUD_oe-rnUsQwL-C-44" value="" style="line;strokeWidth=1;fillColor=none;align=left;verticalAlign=middle;spacingTop=-1;spacingLeft=3;spacingRight=3;rotatable=0;labelPosition=right;points=[];portConstraint=eastwest;strokeColor=inherit;fontSize=16;" parent="ibM_hUD_oe-rnUsQwL-C-40" vertex="1">
                    <mxGeometry y="104" width="423" height="8" as="geometry"/>
                </mxCell>
                <mxCell id="ibM_hUD_oe-rnUsQwL-C-45" value="+ getSalary(): double" style="text;strokeColor=none;fillColor=none;align=left;verticalAlign=top;spacingLeft=4;spacingRight=4;overflow=hidden;rotatable=0;points=[[0,0.5],[1,0.5]];portConstraint=eastwest;whiteSpace=wrap;html=1;fontSize=16;" parent="ibM_hUD_oe-rnUsQwL-C-40" vertex="1">
                    <mxGeometry y="112" width="423" height="26" as="geometry"/>
                </mxCell>
                <mxCell id="ibM_hUD_oe-rnUsQwL-C-55" value="+ setSalary(double): void" style="text;strokeColor=none;fillColor=none;align=left;verticalAlign=top;spacingLeft=4;spacingRight=4;overflow=hidden;rotatable=0;points=[[0,0.5],[1,0.5]];portConstraint=eastwest;whiteSpace=wrap;html=1;fontSize=16;" parent="ibM_hUD_oe-rnUsQwL-C-40" vertex="1">
                    <mxGeometry y="138" width="423" height="26" as="geometry"/>
                </mxCell>
                <mxCell id="ibM_hUD_oe-rnUsQwL-C-46" value="+ getHealthCare(): double" style="text;strokeColor=none;fillColor=none;align=left;verticalAlign=top;spacingLeft=4;spacingRight=4;overflow=hidden;rotatable=0;points=[[0,0.5],[1,0.5]];portConstraint=eastwest;whiteSpace=wrap;html=1;fontSize=16;" parent="ibM_hUD_oe-rnUsQwL-C-40" vertex="1">
                    <mxGeometry y="164" width="423" height="26" as="geometry"/>
                </mxCell>
                <mxCell id="ibM_hUD_oe-rnUsQwL-C-47" value="+ get401K(): double&lt;br&gt;+ updateEmployeeData(updates: Map&amp;lt;String, Object&amp;gt;" style="text;strokeColor=none;fillColor=none;align=left;verticalAlign=top;spacingLeft=4;spacingRight=4;overflow=hidden;rotatable=0;points=[[0,0.5],[1,0.5]];portConstraint=eastwest;whiteSpace=wrap;html=1;fontSize=16;" parent="ibM_hUD_oe-rnUsQwL-C-40" vertex="1">
                    <mxGeometry y="190" width="423" height="74" as="geometry"/>
                </mxCell>
                <mxCell id="ibM_hUD_oe-rnUsQwL-C-48" value="Part_Time_Employee" style="swimlane;fontStyle=1;align=center;verticalAlign=top;childLayout=stackLayout;horizontal=1;startSize=26;horizontalStack=0;resizeParent=1;resizeParentMax=0;resizeLast=0;collapsible=1;marginBottom=0;whiteSpace=wrap;html=1;fontSize=16;" parent="1" vertex="1">
                    <mxGeometry x="114" y="586" width="406" height="114" as="geometry"/>
                </mxCell>
                <mxCell id="ibM_hUD_oe-rnUsQwL-C-49" value="+ hourly_wage: type" style="text;strokeColor=none;fillColor=none;align=left;verticalAlign=top;spacingLeft=4;spacingRight=4;overflow=hidden;rotatable=0;points=[[0,0.5],[1,0.5]];portConstraint=eastwest;whiteSpace=wrap;html=1;fontSize=16;" parent="ibM_hUD_oe-rnUsQwL-C-48" vertex="1">
                    <mxGeometry y="26" width="406" height="26" as="geometry"/>
                </mxCell>
                <mxCell id="ibM_hUD_oe-rnUsQwL-C-50" value="" style="line;strokeWidth=1;fillColor=none;align=left;verticalAlign=middle;spacingTop=-1;spacingLeft=3;spacingRight=3;rotatable=0;labelPosition=right;points=[];portConstraint=eastwest;strokeColor=inherit;fontSize=16;" parent="ibM_hUD_oe-rnUsQwL-C-48" vertex="1">
                    <mxGeometry y="52" width="406" height="8" as="geometry"/>
                </mxCell>
                <mxCell id="ibM_hUD_oe-rnUsQwL-C-51" value="+ getHourlyWage(): double&lt;br&gt;+ updateEmployeeData(updates: Map&amp;lt;String, Object&amp;gt;" style="text;strokeColor=none;fillColor=none;align=left;verticalAlign=top;spacingLeft=4;spacingRight=4;overflow=hidden;rotatable=0;points=[[0,0.5],[1,0.5]];portConstraint=eastwest;whiteSpace=wrap;html=1;fontSize=16;" parent="ibM_hUD_oe-rnUsQwL-C-48" vertex="1">
                    <mxGeometry y="60" width="406" height="54" as="geometry"/>
                </mxCell>
                <mxCell id="ibM_hUD_oe-rnUsQwL-C-52" value="" style="edgeStyle=none;html=1;endSize=12;endArrow=block;endFill=0;rounded=0;fontSize=12;curved=1;exitX=0.5;exitY=0;exitDx=0;exitDy=0;entryX=0.383;entryY=1.374;entryDx=0;entryDy=0;entryPerimeter=0;" parent="1" source="ibM_hUD_oe-rnUsQwL-C-40" target="ibM_hUD_oe-rnUsQwL-C-20" edge="1">
                    <mxGeometry width="160" relative="1" as="geometry">
                        <mxPoint x="-231" y="575" as="sourcePoint"/>
                        <mxPoint x="-213" y="463" as="targetPoint"/>
                    </mxGeometry>
                </mxCell>
                <mxCell id="ibM_hUD_oe-rnUsQwL-C-53" value="" style="edgeStyle=none;html=1;endSize=12;endArrow=block;endFill=0;rounded=0;fontSize=12;curved=1;exitX=0.423;exitY=0.042;exitDx=0;exitDy=0;exitPerimeter=0;entryX=0.604;entryY=1.286;entryDx=0;entryDy=0;entryPerimeter=0;" parent="1" source="ibM_hUD_oe-rnUsQwL-C-48" target="ibM_hUD_oe-rnUsQwL-C-20" edge="1">
                    <mxGeometry width="160" relative="1" as="geometry">
                        <mxPoint x="289" y="547" as="sourcePoint"/>
                        <mxPoint x="313" y="440" as="targetPoint"/>
                    </mxGeometry>
                </mxCell>
                <mxCell id="ibM_hUD_oe-rnUsQwL-C-56" value="Demographics" style="swimlane;fontStyle=1;align=center;verticalAlign=top;childLayout=stackLayout;horizontal=1;startSize=26;horizontalStack=0;resizeParent=1;resizeParentMax=0;resizeLast=0;collapsible=1;marginBottom=0;whiteSpace=wrap;html=1;" parent="1" vertex="1">
                    <mxGeometry x="556" y="-161" width="160" height="320" as="geometry"/>
                </mxCell>
                <mxCell id="ibM_hUD_oe-rnUsQwL-C-57" value="+ SocialSecurity: int" style="text;strokeColor=none;fillColor=none;align=left;verticalAlign=top;spacingLeft=4;spacingRight=4;overflow=hidden;rotatable=0;points=[[0,0.5],[1,0.5]];portConstraint=eastwest;whiteSpace=wrap;html=1;" parent="ibM_hUD_oe-rnUsQwL-C-56" vertex="1">
                    <mxGeometry y="26" width="160" height="26" as="geometry"/>
                </mxCell>
                <mxCell id="ibM_hUD_oe-rnUsQwL-C-58" value="+ employeeId: int" style="text;strokeColor=none;fillColor=none;align=left;verticalAlign=top;spacingLeft=4;spacingRight=4;overflow=hidden;rotatable=0;points=[[0,0.5],[1,0.5]];portConstraint=eastwest;whiteSpace=wrap;html=1;" parent="ibM_hUD_oe-rnUsQwL-C-56" vertex="1">
                    <mxGeometry y="52" width="160" height="26" as="geometry"/>
                </mxCell>
                <mxCell id="ibM_hUD_oe-rnUsQwL-C-59" value="+ DOB: Date" style="text;strokeColor=none;fillColor=none;align=left;verticalAlign=top;spacingLeft=4;spacingRight=4;overflow=hidden;rotatable=0;points=[[0,0.5],[1,0.5]];portConstraint=eastwest;whiteSpace=wrap;html=1;" parent="ibM_hUD_oe-rnUsQwL-C-56" vertex="1">
                    <mxGeometry y="78" width="160" height="26" as="geometry"/>
                </mxCell>
                <mxCell id="ibM_hUD_oe-rnUsQwL-C-60" value="+ Gender: String" style="text;strokeColor=none;fillColor=none;align=left;verticalAlign=top;spacingLeft=4;spacingRight=4;overflow=hidden;rotatable=0;points=[[0,0.5],[1,0.5]];portConstraint=eastwest;whiteSpace=wrap;html=1;" parent="ibM_hUD_oe-rnUsQwL-C-56" vertex="1">
                    <mxGeometry y="104" width="160" height="26" as="geometry"/>
                </mxCell>
                <mxCell id="ibM_hUD_oe-rnUsQwL-C-61" value="+ Race: String" style="text;strokeColor=none;fillColor=none;align=left;verticalAlign=top;spacingLeft=4;spacingRight=4;overflow=hidden;rotatable=0;points=[[0,0.5],[1,0.5]];portConstraint=eastwest;whiteSpace=wrap;html=1;" parent="ibM_hUD_oe-rnUsQwL-C-56" vertex="1">
                    <mxGeometry y="130" width="160" height="26" as="geometry"/>
                </mxCell>
                <mxCell id="ibM_hUD_oe-rnUsQwL-C-62" value="+ Employee: Employee" style="text;strokeColor=none;fillColor=none;align=left;verticalAlign=top;spacingLeft=4;spacingRight=4;overflow=hidden;rotatable=0;points=[[0,0.5],[1,0.5]];portConstraint=eastwest;whiteSpace=wrap;html=1;" parent="ibM_hUD_oe-rnUsQwL-C-56" vertex="1">
                    <mxGeometry y="156" width="160" height="26" as="geometry"/>
                </mxCell>
                <mxCell id="ibM_hUD_oe-rnUsQwL-C-63" value="" style="line;strokeWidth=1;fillColor=none;align=left;verticalAlign=middle;spacingTop=-1;spacingLeft=3;spacingRight=3;rotatable=0;labelPosition=right;points=[];portConstraint=eastwest;strokeColor=inherit;" parent="ibM_hUD_oe-rnUsQwL-C-56" vertex="1">
                    <mxGeometry y="182" width="160" height="8" as="geometry"/>
                </mxCell>
                <mxCell id="ibM_hUD_oe-rnUsQwL-C-64" value="+ getSSN(): int" style="text;strokeColor=none;fillColor=none;align=left;verticalAlign=top;spacingLeft=4;spacingRight=4;overflow=hidden;rotatable=0;points=[[0,0.5],[1,0.5]];portConstraint=eastwest;whiteSpace=wrap;html=1;" parent="ibM_hUD_oe-rnUsQwL-C-56" vertex="1">
                    <mxGeometry y="190" width="160" height="26" as="geometry"/>
                </mxCell>
                <mxCell id="ibM_hUD_oe-rnUsQwL-C-65" value="+ getEmployeeId(): int" style="text;strokeColor=none;fillColor=none;align=left;verticalAlign=top;spacingLeft=4;spacingRight=4;overflow=hidden;rotatable=0;points=[[0,0.5],[1,0.5]];portConstraint=eastwest;whiteSpace=wrap;html=1;" parent="ibM_hUD_oe-rnUsQwL-C-56" vertex="1">
                    <mxGeometry y="216" width="160" height="26" as="geometry"/>
                </mxCell>
                <mxCell id="ibM_hUD_oe-rnUsQwL-C-66" value="+ getDOB():&amp;nbsp; Date" style="text;strokeColor=none;fillColor=none;align=left;verticalAlign=top;spacingLeft=4;spacingRight=4;overflow=hidden;rotatable=0;points=[[0,0.5],[1,0.5]];portConstraint=eastwest;whiteSpace=wrap;html=1;" parent="ibM_hUD_oe-rnUsQwL-C-56" vertex="1">
                    <mxGeometry y="242" width="160" height="26" as="geometry"/>
                </mxCell>
                <mxCell id="ibM_hUD_oe-rnUsQwL-C-67" value="+ getGender(): String" style="text;strokeColor=none;fillColor=none;align=left;verticalAlign=top;spacingLeft=4;spacingRight=4;overflow=hidden;rotatable=0;points=[[0,0.5],[1,0.5]];portConstraint=eastwest;whiteSpace=wrap;html=1;" parent="ibM_hUD_oe-rnUsQwL-C-56" vertex="1">
                    <mxGeometry y="268" width="160" height="26" as="geometry"/>
                </mxCell>
                <mxCell id="ibM_hUD_oe-rnUsQwL-C-68" value="+ getRace(): String" style="text;strokeColor=none;fillColor=none;align=left;verticalAlign=top;spacingLeft=4;spacingRight=4;overflow=hidden;rotatable=0;points=[[0,0.5],[1,0.5]];portConstraint=eastwest;whiteSpace=wrap;html=1;" parent="ibM_hUD_oe-rnUsQwL-C-56" vertex="1">
                    <mxGeometry y="294" width="160" height="26" as="geometry"/>
                </mxCell>
                <mxCell id="ibM_hUD_oe-rnUsQwL-C-69" value="" style="endArrow=classic;startArrow=classic;html=1;rounded=0;fontSize=12;startSize=8;endSize=8;curved=1;entryX=-0.067;entryY=0.055;entryDx=0;entryDy=0;entryPerimeter=0;" parent="1" target="ibM_hUD_oe-rnUsQwL-C-56" edge="1">
                    <mxGeometry width="50" height="50" relative="1" as="geometry">
                        <mxPoint x="214" y="-143" as="sourcePoint"/>
                        <mxPoint x="435" y="-98" as="targetPoint"/>
                    </mxGeometry>
                </mxCell>
                <mxCell id="ibM_hUD_oe-rnUsQwL-C-70" value="1" style="edgeLabel;html=1;align=center;verticalAlign=middle;resizable=0;points=[];fontSize=16;" parent="ibM_hUD_oe-rnUsQwL-C-69" connectable="0" vertex="1">
                    <mxGeometry x="-0.7198" y="-1" relative="1" as="geometry">
                        <mxPoint x="-1" as="offset"/>
                    </mxGeometry>
                </mxCell>
                <mxCell id="ibM_hUD_oe-rnUsQwL-C-71" value="1" style="edgeLabel;html=1;align=center;verticalAlign=middle;resizable=0;points=[];fontSize=16;" parent="ibM_hUD_oe-rnUsQwL-C-69" connectable="0" vertex="1">
                    <mxGeometry x="0.6549" y="-3" relative="1" as="geometry">
                        <mxPoint x="-1" as="offset"/>
                    </mxGeometry>
                </mxCell>
                <mxCell id="5" value="EmployeeDirectory" style="swimlane;fontStyle=1;align=center;verticalAlign=top;childLayout=stackLayout;horizontal=1;startSize=26;horizontalStack=0;resizeParent=1;resizeParentMax=0;resizeLast=0;collapsible=1;marginBottom=0;whiteSpace=wrap;html=1;fontSize=16;" parent="1" vertex="1">
                    <mxGeometry x="-1033" y="125" width="576" height="86" as="geometry"/>
                </mxCell>
                <mxCell id="6" value="- employees: List&amp;lt;GeneralEmployee&amp;gt; employees" style="text;strokeColor=none;fillColor=none;align=left;verticalAlign=top;spacingLeft=4;spacingRight=4;overflow=hidden;rotatable=0;points=[[0,0.5],[1,0.5]];portConstraint=eastwest;whiteSpace=wrap;html=1;fontSize=16;" parent="5" vertex="1">
                    <mxGeometry y="26" width="576" height="26" as="geometry"/>
                </mxCell>
                <mxCell id="9" value="" style="line;strokeWidth=1;fillColor=none;align=left;verticalAlign=middle;spacingTop=-1;spacingLeft=3;spacingRight=3;rotatable=0;labelPosition=right;points=[];portConstraint=eastwest;strokeColor=inherit;fontSize=16;" parent="5" vertex="1">
                    <mxGeometry y="52" width="576" height="8" as="geometry"/>
                </mxCell>
                <mxCell id="10" value="+ searchEmployee(lastname: String, ssnOrId: String): List&amp;lt;GeneralEmployee&amp;gt;" style="text;strokeColor=none;fillColor=none;align=left;verticalAlign=top;spacingLeft=4;spacingRight=4;overflow=hidden;rotatable=0;points=[[0,0.5],[1,0.5]];portConstraint=eastwest;whiteSpace=wrap;html=1;fontSize=16;" parent="5" vertex="1">
                    <mxGeometry y="60" width="576" height="26" as="geometry"/>
                </mxCell>
                <mxCell id="11" value="1" style="endArrow=open;html=1;endSize=12;startArrow=diamondThin;startSize=14;startFill=0;edgeStyle=orthogonalEdgeStyle;align=left;verticalAlign=bottom;exitX=1;exitY=0.5;exitDx=0;exitDy=0;entryX=0;entryY=0.5;entryDx=0;entryDy=0;" parent="1" source="6" target="ibM_hUD_oe-rnUsQwL-C-14" edge="1">
                    <mxGeometry x="-1" y="3" relative="1" as="geometry">
                        <mxPoint x="-438" y="167" as="sourcePoint"/>
                        <mxPoint x="-278" y="167" as="targetPoint"/>
                    </mxGeometry>
                </mxCell>
                <mxCell id="12" value="0..*" style="text;html=1;strokeColor=none;fillColor=none;align=center;verticalAlign=middle;whiteSpace=wrap;rounded=0;" parent="1" vertex="1">
                    <mxGeometry x="-306" y="137" width="60" height="30" as="geometry"/>
                </mxCell>
            </root>
        </mxGraphModel>
    </diagram>
</mxfile>